<svg xmlns="http://www.w3.org/2000/svg"  viewBox="0 0 100 100" width="60px" height="60px"><path d="M27,97.5c-3.051,0-5.793-1.695-7.156-4.424c-1.363-2.727-1.074-5.938,0.757-8.377l0.556-0.741 c-7.093-7.712-11.085-17.825-11.085-28.387c0-11.949,5.254-23.502,14.174-31.411L20.6,19.3c-1.83-2.438-2.12-5.649-0.755-8.378 C21.207,8.195,23.949,6.5,27,6.5h21.429c4.2,0,7.654,3.254,7.976,7.372c21.057,2.208,37.524,20.067,37.524,41.699 c0,6.188-1.35,12.23-3.94,17.758c0.564,0.603,1.039,1.296,1.399,2.063c1.312,2.799,0.88,6.142-1.1,8.516L81.36,94.622 c-1.525,1.829-3.765,2.878-6.146,2.878H27z" opacity=".35"/><path fill="#f2f2f2" d="M25,95.5c-3.051,0-5.793-1.695-7.156-4.424c-1.363-2.727-1.074-5.938,0.757-8.377l0.556-0.741 C12.063,74.246,8.071,64.133,8.071,53.571c0-11.949,5.254-23.502,14.174-31.411L18.6,17.3c-1.83-2.438-2.12-5.649-0.755-8.378 C19.207,6.195,21.949,4.5,25,4.5h21.429c4.2,0,7.654,3.254,7.976,7.372c21.057,2.208,37.524,20.067,37.524,41.699 c0,6.188-1.35,12.23-3.94,17.758c0.564,0.603,1.039,1.296,1.399,2.063c1.312,2.799,0.88,6.142-1.1,8.516L79.36,92.622 c-1.525,1.829-3.765,2.878-6.146,2.878H25z"/><path fill="#ffc571" d="M50,19.643c-18.738,0-33.929,15.19-33.929,33.929S31.262,87.5,50,87.5s33.929-15.19,33.929-33.929 S68.738,19.643,50,19.643z"/><path fill="#2785bd" d="M50,23.214c-16.766,0-30.357,13.591-30.357,30.357S33.234,83.929,50,83.929 s30.357-13.591,30.357-30.357S66.766,23.214,50,23.214z"/><path fill="#70bfff" d="M67.857,64.286c1.638,5.209-3.87,9.009-8.184,9.009c-2.361,0-5.282-0.9-6.102-3.652 c-3.045,1.618-5.65,3.409-7.143,4.496v2.646h23.063c3.568-2.996,6.454-6.775,8.341-11.107 C76.305,65.107,73.193,64.286,67.857,64.286z M72.434,33.162c-7.068,2.077-12.091,5.848-14.379,7.832 c-1.575,4.78-5.346,10.045-11.627,14.362v12.5c0,0,4.993-9.123,16.816-11.905c7.707-1.814,14.366-2.33,17.109-2.475 C80.329,45.646,77.327,38.529,72.434,33.162z"/><path fill="#70bfff" d="M69.498,30.345c-1.695-1.421-3.537-2.673-5.516-3.702c-1.987,0.92-4.475,2.184-6.839,3.714 c1.123,1.405,1.709,3.286,1.759,5.429C61.491,33.959,65.068,31.879,69.498,30.345z"/><path fill="#70bfff" d="M59.923,28.707c-0.923,0.511-1.859,1.054-2.78,1.65c1.123,1.405,1.709,3.286,1.759,5.429 c1.795-1.266,4.095-2.646,6.793-3.889C63.92,30.609,61.989,29.532,59.923,28.707z"/><path fill="#ffc571" d="M25,12.5h21.429v64.286h35.714L73.214,87.5H25l5.357-7.143V19.643L25,12.5z"/><path fill="#f9b84f" d="M46.429,76.786V12.5h-3.571v67.857h36.309l2.977-3.571H46.429z"/><path fill="#40396e" d="M46.429,12.5v7.331c1.174-0.123,2.365-0.188,3.571-0.188c18.738,0,33.929,15.19,33.929,33.929 c0,8.983-3.497,17.145-9.197,23.214h7.411L73.214,87.5H25l4.932-6.576c-8.403-6.176-13.86-16.125-13.86-27.353 c0-11.415,5.643-21.506,14.286-27.655v-6.273L25,12.5H46.429 M46.429,9.5H25c-1.136,0-2.175,0.642-2.683,1.658 c-0.508,1.016-0.398,2.233,0.283,3.142l4.757,6.343v3.767c-8.974,6.979-14.286,17.765-14.286,29.162 c0,10.687,4.705,20.898,12.718,27.876L22.6,85.7c-0.682,0.909-0.791,2.125-0.283,3.142C22.825,89.858,23.864,90.5,25,90.5h48.214 c0.89,0,1.735-0.395,2.305-1.079l8.929-10.714c0.745-0.894,0.906-2.139,0.412-3.193s-1.553-1.728-2.717-1.728h-1.24 c3.918-5.97,6.026-12.96,6.026-20.214c0-20.362-16.566-36.929-36.929-36.929c-0.19,0-0.38,0.002-0.571,0.005V12.5 C49.429,10.843,48.085,9.5,46.429,9.5L46.429,9.5z"/></svg>